# xmcd CD database file
#
# Track frame offsets:
#	183
#	13998
#	26383
#	40458
#	54733
#	68985
#	82240
#	95143
#	109050
#	123468
#	137543
#	151120
#	162543
#	176233
#	190328
#	203268
#	217195
#	230170
#	243645
#	257338
#	271083
#	284115
#	296488
#	308095
#	321913
#
# Disc length: 4479 seconds
#
# Revision: 0
# Processed by: cddbd v1.5.2PL0 Copyright (c) Steve Scherf et al.
# Submitted via: CDex 1.70beta2
#
DISCID=82117d19
DTITLE=Jimmy Young and Petula Clark - Too Young
DYEAR=1900
DGENRE=Jazz
TTITLE0=Vanity
TTITLE1=Put Your Shoes On Lucy
TTITLE2=Life's Desire
TTITLE3=I'll Always Love You
TTITLE4=Mariandl
TTITLE5=Clancy Lowered The Boom
TTITLE6=My Love And Devotion
TTITLE7=House In The Sky
TTITLE8=So Many Times Have I Cried Over You
TTITLE9=Song Of The Mermaid
TTITLE10=Only Fools
TTITLE11=Cold Cold Heart
TTITLE12=And So To Sleep Again
TTITLE13=Teasin'
TTITLE14=Too Young
TTITLE15=Black Note Serenade
TTITLE16=How Can I Leave You
TTITLE17=Tennessee Waltz
TTITLE18=Because Of You
TTITLE19=beloved Be Faithful
TTITLE20=Broken Heart
TTITLE21=Fly Away Peter, Fly Away Paul
TTITLE22=I'll Sing To You
TTITLE23=That's How A Love Song Is Born
TTITLE24=Tell Me Truly
EXTD=
EXTT0=
EXTT1=
EXTT2=
EXTT3=
EXTT4=
EXTT5=
EXTT6=
EXTT7=
EXTT8=
EXTT9=
EXTT10=
EXTT11=
EXTT12=
EXTT13=
EXTT14=
EXTT15=
EXTT16=
EXTT17=
EXTT18=
EXTT19=
EXTT20=
EXTT21=
EXTT22=
EXTT23=
EXTT24=
PLAYORDER=
